<svg enable-background="new 0 0 500 500" viewBox="0 0 500 500" xmlns="http://www.w3.org/2000/svg" xmlns:xlink="http://www.w3.org/1999/xlink"><clipPath id="a"><path d="m194.7376 237.6875c-1.4461 1.4461-3.4452 2.3439-5.6479 2.3439-4.4077-.0024-7.9918-3.5865-7.9942-7.9942.0024-4.4125 3.5937-7.999 7.9942-7.9942 2.8443 0 5.497 1.5323 6.924 3.9983.6991 1.2067 1.0702 2.5881 1.0702 3.9959 0 2.2027-.8978 4.2018-2.3463 5.6503z"/></clipPath><clipPath id="b"><path d="m189.0898 210.176c7.7763 0 15.0283 4.1826 18.926 10.9151 1.9201 3.3136 2.9377 7.0988 2.9353 10.9462.0024 12.0643-9.8065 21.8636-21.8613 21.8613-12.0547.0024-21.8636-9.8066-21.8612-21.8613 0-6.0285 2.4516-11.4921 6.4116-15.452 3.9575-3.9577 9.421-6.4093 15.4496-6.4093zm7.9941 21.8612c0-1.4078-.3711-2.7892-1.0702-3.9959-1.4269-2.466-4.0797-3.9983-6.924-3.9983-4.4005-.0048-7.9918 3.5817-7.9942 7.9942.0024 4.4077 3.5865 7.9918 7.9942 7.9942 2.2027 0 4.2018-.8978 5.6479-2.3439 1.4485-1.4485 2.3463-3.4476 2.3463-5.6503z"/></clipPath><clipPath id="c"><path d="m194.7376 183.2733c-1.4461 1.4461-3.4452 2.3439-5.6479 2.3439-4.4077-.0024-7.9918-3.5865-7.9942-7.9942.0024-4.4125 3.5937-7.9989 7.9942-7.9942 2.8443 0 5.497 1.5323 6.924 3.9983.6991 1.2067 1.0702 2.5881 1.0702 3.9959 0 2.2026-.8978 4.2018-2.3463 5.6503z"/></clipPath><clipPath id="d"><path d="m189.0898 155.7617c7.7763 0 15.0283 4.1826 18.926 10.9151 1.9201 3.3135 2.9377 7.0987 2.9353 10.9462.0024 12.0643-9.8065 21.8636-21.8613 21.8613-12.0547.0024-21.8636-9.8066-21.8612-21.8613 0-6.0285 2.4516-11.4921 6.4116-15.452 3.9575-3.9576 9.421-6.4093 15.4496-6.4093zm7.9941 21.8613c0-1.4078-.3711-2.7892-1.0702-3.9959-1.4269-2.466-4.0797-3.9983-6.924-3.9983-4.4005-.0048-7.9918 3.5817-7.9942 7.9942.0024 4.4077 3.5865 7.9918 7.9942 7.9942 2.2027 0 4.2018-.8978 5.6479-2.3439 1.4485-1.4485 2.3463-3.4477 2.3463-5.6503z"/></clipPath><clipPath id="e"><path d="m195.1881 292.1268c-1.4461 1.4461-3.4452 2.3439-5.6479 2.3439-4.4077-.0024-7.9918-3.5865-7.9942-7.9942.0024-4.4125 3.5937-7.9989 7.9942-7.9941 2.8443 0 5.497 1.5323 6.924 3.9983.6991 1.2067 1.0702 2.5881 1.0702 3.9959 0 2.2026-.8978 4.2017-2.3463 5.6502z"/></clipPath><clipPath id="f"><path d="m189.5403 264.6153c7.7763 0 15.0283 4.1826 18.926 10.9151 1.9201 3.3135 2.9377 7.0987 2.9353 10.9462.0024 12.0643-9.8065 21.8636-21.8613 21.8613-12.0547.0024-21.8636-9.8065-21.8612-21.8613 0-6.0285 2.4516-11.492 6.4116-15.452 3.9575-3.9577 9.421-6.4093 15.4496-6.4093zm7.9941 21.8612c0-1.4078-.3711-2.7892-1.0702-3.9959-1.4269-2.466-4.0797-3.9983-6.924-3.9983-4.4005-.0048-7.9918 3.5817-7.9942 7.9941.0024 4.4077 3.5865 7.9918 7.9942 7.9942 2.2027 0 4.2018-.8978 5.6479-2.3439 1.4485-1.4484 2.3463-3.4475 2.3463-5.6502z"/></clipPath><clipPath id="g"><path d="m194.7376 346.2329c-1.4461 1.4461-3.4452 2.3439-5.6479 2.3439-4.4077-.0024-7.9918-3.5865-7.9942-7.9942.0024-4.4125 3.5937-7.999 7.9942-7.9942 2.8443 0 5.497 1.5323 6.924 3.9983.6991 1.2067 1.0702 2.5881 1.0702 3.9959 0 2.2027-.8978 4.2018-2.3463 5.6503z"/></clipPath><clipPath id="h"><path d="m189.0898 318.7214c7.7763 0 15.0283 4.1826 18.926 10.915 1.9201 3.3136 2.9377 7.0988 2.9353 10.9462.0024 12.0643-9.8065 21.8636-21.8613 21.8612-12.0547.0024-21.8636-9.8065-21.8612-21.8612 0-6.0285 2.4516-11.4921 6.4116-15.452 3.9575-3.9576 9.421-6.4092 15.4496-6.4092zm7.9941 21.8612c0-1.4078-.3711-2.7892-1.0702-3.9959-1.4269-2.466-4.0797-3.9983-6.924-3.9983-4.4005-.0048-7.9918 3.5817-7.9942 7.9942.0024 4.4077 3.5865 7.9918 7.9942 7.9942 2.2027 0 4.2018-.8978 5.6479-2.3439 1.4485-1.4485 2.3463-3.4476 2.3463-5.6503z"/></clipPath><path d="m116.8525 421.9722c-5.7041 0-10.3442-4.3127-10.3442-9.6129v-324.1763c0-5.3002 4.6401-9.6117 10.3442-9.6117h204.0055c3.0347 0 9.3959.5498 11.7506 2.6302l.3545.3442 58.905 63.2912c2.3101 2.491 2.9202 8.4928 2.9202 11.3184v256.2039c0 5.3002-4.6407 9.6129-10.3436 9.6129h-267.5922z" fill="#fff"/><path d="m384.4445 423.2066h-267.5925c-6.3839 0-11.5786-4.8658-11.5786-10.8474v-324.1761c0-5.9804 5.1947-10.8461 11.5786-10.8461h204.0062c.377 0 9.2786.0329 12.568 2.9389l.3947.3833 58.9508 63.337c3.2135 3.4652 3.2514 11.7924 3.2514 12.1593v256.2036c0 5.9817-5.1947 10.8475-11.5786 10.8475zm-267.9366-11.2877c.0848.0278.1999.0531.3441.0531h267.5925c.1442 0 .2581-.0253.3441-.0531v-255.7633c-.0076-.9033-.3593-3.7347-.7034-5.0037l-57.6527-61.9416c-1.4651-.3176-4.4533-.6389-5.5742-.6389h-204.0063c-.143 0-.2594.024-.3441.0531zm210.5242-322.5479v.0013z" fill="#767676"/><path d="m189.0874 210.1754.0012-.0012c7.7751.0012 15.0295 4.1862 18.932 10.9234 1.9177 3.3159 2.9305 7.1011 2.9293 10.9378 0 5.8394-2.2733 11.3304-6.4032 15.4604-4.1288 4.1288-9.6186 6.4032-15.458 6.4032s-11.328-2.2733-15.458-6.4032-6.4032-9.6186-6.4056-15.4628c.0012-6.025 2.454-11.4897 6.4116-15.4473 3.9586-3.9587 9.4234-6.4115 15.4507-6.4103zm7.993 21.8576c.0012-1.4042-.3687-2.7868-1.063-3.9887-1.4293-2.4684-4.0833-3.9995-6.9299-4.0019-4.4077.0024-7.993 3.5877-7.993 7.993 0 2.1356.832 4.1431 2.3427 5.6539 1.5083 1.5083 3.5159 2.3403 5.6503 2.3415 2.1356 0 4.1443-.8308 5.6539-2.3403s2.3402-3.5183 2.339-5.6575z" fill="#5b7fc0"/><path d="m189.0898 210.176c7.7763 0 15.0283 4.1826 18.926 10.9151 1.9201 3.3136 2.9377 7.0988 2.9353 10.9462.0024 12.0643-9.8065 21.8636-21.8613 21.8613-12.0547.0024-21.8636-9.8066-21.8612-21.8613 0-6.0285 2.4516-11.4921 6.4116-15.452 3.9575-3.9577 9.421-6.4093 15.4496-6.4093zm7.9941 21.8612c0-1.4078-.3711-2.7892-1.0702-3.9959-1.4269-2.466-4.0797-3.9983-6.924-3.9983-4.4005-.0048-7.9918 3.5817-7.9942 7.9942.0024 4.4077 3.5865 7.9918 7.9942 7.9942 2.2027 0 4.2018-.8978 5.6479-2.3439 1.4485-1.4485 2.3463-3.4476 2.3463-5.6503z" fill="#fff" opacity=".3"/><path clip-path="url(#a)" d="m190.0704 225.0237c-4.4005-.0048-7.9918 3.5817-7.9942 7.9942.0011 1.9546.7088 3.7452 1.8782 5.1354-1.7447-1.4674-2.8575-3.663-2.8588-6.116.0024-4.4125 3.5936-7.999 7.9942-7.9942 2.3802-.0001 4.616 1.0833 6.1218 2.8788-1.4231-1.1972-3.2342-1.8982-5.1412-1.8982z" fill="#fff"/><path clip-path="url(#a)" d="m190.0704 225.0237c-4.4005-.0048-7.9918 3.5817-7.9942 7.9942.0011 1.9546.7088 3.7452 1.8782 5.1354-1.7447-1.4674-2.8575-3.663-2.8588-6.116.0024-4.4125 3.5936-7.999 7.9942-7.9942 2.3802-.0001 4.616 1.0833 6.1218 2.8788-1.4231-1.1972-3.2342-1.8982-5.1412-1.8982z" fill="#020202" opacity=".13"/><path clip-path="url(#b)" d="m172.6595 215.6045c-3.96 3.96-6.4116 9.4235-6.4116 15.452-.0024 12.0547 9.8066 21.8636 21.8613 21.8612 12.0547.0024 21.8636-9.797 21.8613-21.8612.0024-3.8475-1.0151-7.6326-2.9353-10.9462-3.8977-6.7324-11.1497-10.9151-18.926-10.9151-6.0286.0001-11.4921 2.4518-15.4497 6.4093z" fill="#5b7fc0"/><path d="m198.8952 225.1043h122.6266v13.8671h-122.6266z" fill="#5b7fc0"/><path d="m189.0874 155.7611.0012-.0012c7.7751.0012 15.0295 4.1862 18.932 10.9234 1.9177 3.3159 2.9305 7.1011 2.9293 10.9378 0 5.8394-2.2733 11.3304-6.4032 15.4604-4.1288 4.1288-9.6186 6.4032-15.458 6.4032s-11.328-2.2733-15.458-6.4032-6.4032-9.6186-6.4056-15.4628c.0012-6.0249 2.454-11.4897 6.4116-15.4473 3.9586-3.9586 9.4234-6.4115 15.4507-6.4103zm7.993 21.8577c.0012-1.4042-.3687-2.7868-1.063-3.9887-1.4293-2.4684-4.0833-3.9995-6.9299-4.0019-4.4077.0024-7.993 3.5877-7.993 7.993 0 2.1356.832 4.1431 2.3427 5.6539 1.5083 1.5083 3.5159 2.3403 5.6503 2.3415 2.1356 0 4.1443-.8308 5.6539-2.3403 1.5094-1.5096 2.3402-3.5183 2.339-5.6575z" fill="#d95140"/><path d="m189.0898 155.7617c7.7763 0 15.0283 4.1826 18.926 10.9151 1.9201 3.3135 2.9377 7.0987 2.9353 10.9462.0024 12.0643-9.8065 21.8636-21.8613 21.8613-12.0547.0024-21.8636-9.8066-21.8612-21.8613 0-6.0285 2.4516-11.4921 6.4116-15.452 3.9575-3.9576 9.421-6.4093 15.4496-6.4093zm7.9941 21.8613c0-1.4078-.3711-2.7892-1.0702-3.9959-1.4269-2.466-4.0797-3.9983-6.924-3.9983-4.4005-.0048-7.9918 3.5817-7.9942 7.9942.0024 4.4077 3.5865 7.9918 7.9942 7.9942 2.2027 0 4.2018-.8978 5.6479-2.3439 1.4485-1.4485 2.3463-3.4477 2.3463-5.6503z" fill="#fff" opacity=".3"/><path clip-path="url(#c)" d="m190.0704 170.6095c-4.4005-.0048-7.9918 3.5817-7.9942 7.9942.0011 1.9546.7088 3.7452 1.8782 5.1354-1.7447-1.4674-2.8575-3.663-2.8588-6.116.0024-4.4125 3.5936-7.999 7.9942-7.9942 2.3802-.0001 4.616 1.0833 6.1218 2.8788-1.4231-1.1973-3.2342-1.8982-5.1412-1.8982z" fill="#fff"/><path clip-path="url(#c)" d="m190.0704 170.6095c-4.4005-.0048-7.9918 3.5817-7.9942 7.9942.0011 1.9546.7088 3.7452 1.8782 5.1354-1.7447-1.4674-2.8575-3.663-2.8588-6.116.0024-4.4125 3.5936-7.999 7.9942-7.9942 2.3802-.0001 4.616 1.0833 6.1218 2.8788-1.4231-1.1973-3.2342-1.8982-5.1412-1.8982z" fill="#020202" opacity=".13"/><path clip-path="url(#d)" d="m172.6595 161.1903c-3.96 3.96-6.4116 9.4235-6.4116 15.452-.0024 12.0547 9.8066 21.8636 21.8613 21.8613 12.0547.0024 21.8636-9.797 21.8613-21.8613.0024-3.8474-1.0151-7.6326-2.9353-10.9462-3.8977-6.7324-11.1497-10.9151-18.926-10.9151-6.0286.0001-11.4921 2.4517-15.4497 6.4093z" fill="#d95140"/><path d="m198.8952 170.69h122.6266v13.8671h-122.6266z" fill="#d95140"/><path d="m189.5379 264.6147.0012-.0012c7.7751.0012 15.0294 4.1862 18.932 10.9235 1.9177 3.3159 2.9305 7.1011 2.9293 10.9378 0 5.8394-2.2733 11.3304-6.4032 15.4604-4.1288 4.1288-9.6186 6.4032-15.458 6.4032s-11.3281-2.2733-15.458-6.4032c-4.13-4.13-6.4032-9.6186-6.4056-15.4628.0012-6.0249 2.454-11.4897 6.4116-15.4472 3.9586-3.9589 9.4233-6.4117 15.4507-6.4105zm7.993 21.8576c.0012-1.4042-.3687-2.7868-1.063-3.9887-1.4293-2.4684-4.0833-3.9995-6.9299-4.0019-4.4077.0024-7.993 3.5877-7.993 7.993 0 2.1356.832 4.1431 2.3427 5.6538 1.5083 1.5083 3.5159 2.3403 5.6503 2.3415 2.1356 0 4.1443-.8308 5.6539-2.3403 1.5094-1.5095 2.3402-3.5182 2.339-5.6574z" fill="#56a55c"/><path d="m189.5403 264.6153c7.7763 0 15.0283 4.1826 18.926 10.9151 1.9201 3.3135 2.9377 7.0987 2.9353 10.9462.0024 12.0643-9.8065 21.8636-21.8613 21.8613-12.0547.0024-21.8636-9.8065-21.8612-21.8613 0-6.0285 2.4516-11.492 6.4116-15.452 3.9575-3.9577 9.421-6.4093 15.4496-6.4093zm7.9941 21.8612c0-1.4078-.3711-2.7892-1.0702-3.9959-1.4269-2.466-4.0797-3.9983-6.924-3.9983-4.4005-.0048-7.9918 3.5817-7.9942 7.9941.0024 4.4077 3.5865 7.9918 7.9942 7.9942 2.2027 0 4.2018-.8978 5.6479-2.3439 1.4485-1.4484 2.3463-3.4475 2.3463-5.6502z" fill="#fff" opacity=".3"/><path clip-path="url(#e)" d="m190.5209 279.463c-4.4005-.0048-7.9918 3.5817-7.9942 7.9941.0011 1.9547.7088 3.7452 1.8782 5.1354-1.7446-1.4674-2.8575-3.6631-2.8588-6.1161.0024-4.4125 3.5936-7.999 7.9942-7.9941 2.3802-.0001 4.616 1.0833 6.1218 2.8788-1.4231-1.1971-3.2342-1.8981-5.1412-1.8981z" fill="#fff"/><path clip-path="url(#e)" d="m190.5209 279.463c-4.4005-.0048-7.9918 3.5817-7.9942 7.9941.0011 1.9547.7088 3.7452 1.8782 5.1354-1.7446-1.4674-2.8575-3.6631-2.8588-6.1161.0024-4.4125 3.5936-7.999 7.9942-7.9941 2.3802-.0001 4.616 1.0833 6.1218 2.8788-1.4231-1.1971-3.2342-1.8981-5.1412-1.8981z" fill="#020202" opacity=".13"/><path clip-path="url(#f)" d="m173.11 270.0439c-3.96 3.96-6.4116 9.4235-6.4116 15.452-.0024 12.0547 9.8066 21.8636 21.8613 21.8613 12.0547.0024 21.8636-9.797 21.8613-21.8613.0024-3.8474-1.0151-7.6326-2.9353-10.9462-3.8977-6.7325-11.1497-10.9151-18.926-10.9151-6.0286 0-11.4921 2.4517-15.4497 6.4093z" fill="#56a55c"/><path d="m199.3456 279.5436h122.6266v13.8671h-122.6266z" fill="#56a55c"/><path d="m189.0874 318.7208.0012-.0012c7.7751.0012 15.0295 4.1862 18.932 10.9234 1.9177 3.3159 2.9305 7.1011 2.9293 10.9378 0 5.8394-2.2733 11.3305-6.4032 15.4604-4.1288 4.1288-9.6186 6.4032-15.458 6.4032s-11.328-2.2733-15.458-6.4032-6.4032-9.6186-6.4056-15.4628c.0012-6.025 2.454-11.4897 6.4116-15.4472 3.9586-3.9588 9.4234-6.4116 15.4507-6.4104zm7.993 21.8576c.0012-1.4042-.3687-2.7868-1.063-3.9887-1.4293-2.4684-4.0833-3.9995-6.9299-4.0019-4.4077.0024-7.993 3.5877-7.993 7.993 0 2.1356.832 4.1431 2.3427 5.6539 1.5083 1.5083 3.5159 2.3403 5.6503 2.3415 2.1356 0 4.1443-.8308 5.6539-2.3403s2.3402-3.5183 2.339-5.6575z" fill="#f1bc42"/><path d="m189.0898 318.7214c7.7763 0 15.0283 4.1826 18.926 10.915 1.9201 3.3136 2.9377 7.0988 2.9353 10.9462.0024 12.0643-9.8065 21.8636-21.8613 21.8612-12.0547.0024-21.8636-9.8065-21.8612-21.8612 0-6.0285 2.4516-11.4921 6.4116-15.452 3.9575-3.9576 9.421-6.4092 15.4496-6.4092zm7.9941 21.8612c0-1.4078-.3711-2.7892-1.0702-3.9959-1.4269-2.466-4.0797-3.9983-6.924-3.9983-4.4005-.0048-7.9918 3.5817-7.9942 7.9942.0024 4.4077 3.5865 7.9918 7.9942 7.9942 2.2027 0 4.2018-.8978 5.6479-2.3439 1.4485-1.4485 2.3463-3.4476 2.3463-5.6503z" fill="#fff" opacity=".3"/><path clip-path="url(#g)" d="m190.0704 333.5691c-4.4005-.0048-7.9918 3.5817-7.9942 7.9942.0011 1.9547.7088 3.7452 1.8782 5.1354-1.7447-1.4674-2.8575-3.6631-2.8588-6.1161.0024-4.4125 3.5936-7.999 7.9942-7.9942 2.3802-.0001 4.616 1.0834 6.1218 2.8788-1.4231-1.1971-3.2342-1.8981-5.1412-1.8981z" fill="#fff"/><path clip-path="url(#g)" d="m190.0704 333.5691c-4.4005-.0048-7.9918 3.5817-7.9942 7.9942.0011 1.9547.7088 3.7452 1.8782 5.1354-1.7447-1.4674-2.8575-3.6631-2.8588-6.1161.0024-4.4125 3.5936-7.999 7.9942-7.9942 2.3802-.0001 4.616 1.0834 6.1218 2.8788-1.4231-1.1971-3.2342-1.8981-5.1412-1.8981z" fill="#020202" opacity=".13"/><g fill="#f1bc42"><path clip-path="url(#h)" d="m172.6595 324.15c-3.96 3.96-6.4116 9.4235-6.4116 15.452-.0024 12.0547 9.8066 21.8636 21.8613 21.8612 12.0547.0024 21.8636-9.797 21.8613-21.8612.0024-3.8474-1.0151-7.6327-2.9353-10.9462-3.8977-6.7324-11.1497-10.9151-18.926-10.9151-6.0286 0-11.4921 2.4517-15.4497 6.4093z"/><path d="m198.8952 333.6497h122.6266v13.8671h-122.6266z"/></g></svg>